<svg width="20" height="21" viewBox="0 0 20 21" fill="none" xmlns="http://www.w3.org/2000/svg">
<path fill-rule="evenodd" clip-rule="evenodd" d="M19 10.3643C19 15.3348 14.9706 19.3643 10 19.3643C5.02944 19.3643 1 15.3348 1 10.3643C1 5.39369 5.02944 1.36426 10 1.36426C14.9706 1.36426 19 5.39369 19 10.3643ZM20 10.3643C20 15.8871 15.5228 20.3643 10 20.3643C4.47715 20.3643 0 15.8871 0 10.3643C0 4.84141 4.47715 0.364258 10 0.364258C15.5228 0.364258 20 4.84141 20 10.3643ZM14.3333 8.36816L15.2167 9.2515L10.1083 14.3598L5 9.2515L5.88333 8.36816L10.1083 12.5932L14.3333 8.36816Z" fill="#01FF69"/>
</svg>
